<svg width="16" height="16" viewBox="0 0 16 16" fill="none" xmlns="http://www.w3.org/2000/svg">
<path d="M5.66671 9.66667C6.10873 9.66667 6.53266 9.49107 6.84522 9.17851C7.15778 8.86595 7.33337 8.44203 7.33337 8C7.33337 7.08 7.00004 6.66667 6.66671 6C5.95204 4.57133 6.51737 3.29733 8.00004 2C8.33337 3.66667 9.33337 5.26667 10.6667 6.33333C12 7.4 12.6667 8.66667 12.6667 10C12.6667 10.6128 12.546 11.2197 12.3115 11.7859C12.077 12.352 11.7332 12.8665 11.2999 13.2998C10.8665 13.7332 10.3521 14.0769 9.7859 14.3114C9.21971 14.546 8.61288 14.6667 8.00004 14.6667C7.38721 14.6667 6.78037 14.546 6.21418 14.3114C5.648 14.0769 5.13355 13.7332 4.70021 13.2998C4.26687 12.8665 3.92312 12.352 3.6886 11.7859C3.45408 11.2197 3.33337 10.6128 3.33337 10C3.33337 9.23133 3.62204 8.47067 4.00004 8C4.00004 8.44203 4.17564 8.86595 4.4882 9.17851C4.80076 9.49107 5.22468 9.66667 5.66671 9.66667Z" fill="#FFA100" stroke="#FFA100" stroke-width="1.33333" stroke-linecap="round" stroke-linejoin="round"/>
</svg>
